<svg width="44" height="44" viewBox="0 0 44 44" fill="none" xmlns="http://www.w3.org/2000/svg">
<g filter="url(#filter0_d)">
<rect x="4" y="12" width="24" height="24" fill="#415167"/>
<path d="M8.31755 16.6639H21.7273C21.7677 16.6639 21.8045 16.6793 21.8424 16.6909L22.172 15.5896C22.2768 15.2394 22.5945 15 22.9546 15H24.5909C24.8168 15 25 15.1862 25 15.416V16.2479C25 16.4776 24.8168 16.6639 24.5909 16.6639H23.5606L21.0045 25.2046L21.9592 26.337C22.3365 26.7846 22.5064 27.4013 22.3327 27.9637C22.1106 28.683 21.4863 29.1429 20.7664 29.1429H9.04544C8.81951 29.1429 8.63634 28.9566 8.63634 28.7269V27.895C8.63634 27.6652 8.81951 27.479 9.04544 27.479H20.7665L19.4697 25.9406C19.4371 25.9019 19.4131 25.8583 19.3884 25.8151H11.4608C10.8268 25.8151 10.2497 25.4428 9.97974 24.8594L7.12503 18.6913C7.04315 18.5137 7 18.3167 7 18.1213V18.0035C7 17.2637 7.5899 16.6639 8.31755 16.6639Z" fill="#F9FBFF"/>
<path d="M20.1786 33.0001C19.291 33.0001 18.5714 32.2805 18.5714 31.3929C18.5714 30.5053 19.291 29.7858 20.1786 29.7858C21.0662 29.7858 21.7857 30.5053 21.7857 31.3929C21.7857 32.2805 21.0662 33.0001 20.1786 33.0001Z" fill="white"/>
<path d="M10.5357 33.0001C9.64814 33.0001 8.9286 32.2805 8.9286 31.3929C8.9286 30.5053 9.64814 29.7858 10.5357 29.7858C11.4233 29.7858 12.1429 30.5053 12.1429 31.3929C12.1429 32.2805 11.4233 33.0001 10.5357 33.0001Z" fill="white"/>
<path fill-rule="evenodd" clip-rule="evenodd" d="M30 22C35.5228 22 40 17.5228 40 12C40 6.47715 35.5228 2 30 2C24.4772 2 20 6.47715 20 12C20 17.5228 24.4772 22 30 22Z" fill="#C7A17A"/>
<path d="M33.5316 16.0622C33.653 16.0622 33.751 16.0996 33.8256 16.1742C33.9003 16.2396 33.9376 16.3282 33.9376 16.4402C33.9376 16.6922 33.8023 16.8182 33.5316 16.8182H27.9596C27.829 16.8182 27.7263 16.7809 27.6516 16.7062C27.577 16.6316 27.5396 16.5429 27.5396 16.4402C27.5396 16.3096 27.5863 16.1976 27.6796 16.1042L31.1376 12.2542C31.6323 11.6849 31.9916 11.1809 32.2156 10.7422C32.4396 10.3036 32.5516 9.8649 32.5516 9.42624C32.5516 8.83824 32.379 8.38557 32.0336 8.06824C31.6976 7.7509 31.2216 7.59224 30.6056 7.59224C30.1296 7.59224 29.677 7.6809 29.2476 7.85824C28.8276 8.02624 28.3936 8.2969 27.9456 8.67024C27.843 8.76357 27.7356 8.81024 27.6236 8.81024C27.549 8.81024 27.4836 8.7729 27.4276 8.69824C27.3716 8.62357 27.3436 8.5349 27.3436 8.43224C27.3436 8.27357 27.4043 8.13824 27.5256 8.02624C27.899 7.66224 28.361 7.3729 28.9116 7.15824C29.4623 6.94357 30.027 6.83624 30.6056 6.83624C31.4736 6.83624 32.1596 7.0649 32.6636 7.52224C33.1676 7.97024 33.4196 8.5909 33.4196 9.38424C33.4196 9.95357 33.289 10.5042 33.0276 11.0362C32.7663 11.5682 32.337 12.1656 31.7396 12.8282L28.7856 16.0622H33.5316Z" fill="#F9FBFF"/>
</g>
<defs>
<filter id="filter0_d" x="0" y="2" width="44" height="42" filterUnits="userSpaceOnUse" color-interpolation-filters="sRGB">
<feFlood flood-opacity="0" result="BackgroundImageFix"/>
<feColorMatrix in="SourceAlpha" type="matrix" values="0 0 0 0 0 0 0 0 0 0 0 0 0 0 0 0 0 0 127 0"/>
<feOffset dy="4"/>
<feGaussianBlur stdDeviation="2"/>
<feColorMatrix type="matrix" values="0 0 0 0 0 0 0 0 0 0 0 0 0 0 0 0 0 0 0.25 0"/>
<feBlend mode="normal" in2="BackgroundImageFix" result="effect1_dropShadow"/>
<feBlend mode="normal" in="SourceGraphic" in2="effect1_dropShadow" result="shape"/>
</filter>
</defs>
</svg>
