<svg width="42" height="40" viewBox="0 0 42 40" fill="none" xmlns="http://www.w3.org/2000/svg">
<path d="M16.4905 24.9843C14.1724 21.1555 14.1669 17.175 14.4026 15.3229C8.97166 17.8303 5.72188 23.2134 7.90849 28.0387C10.4842 28.2878 14.0957 27.5296 16.4905 24.9843Z" fill="#415167"/>
<path d="M17.0879 25.9104C14.9725 28.0874 11.3391 29.3168 8.5661 29.1543C11.098 32.7015 17.8332 34.2612 23.8998 30.8385C21.3022 30.2266 18.8525 28.4394 17.0879 25.9104Z" fill="#415167"/>
<path d="M23.434 17.9603C19.8061 14.0611 19.5046 10.3406 20.0033 7.89816C16.2548 9.98316 14.4244 15.3283 15.8931 20.7764C17.5317 27.0043 23.3573 31.7158 28.8211 29.3438C28.991 27.5946 28.7663 23.6683 23.434 17.9603Z" fill="#415167"/>
<path d="M33.5287 16.1894C31.8627 9.98317 26.3002 5.69404 21.2364 7.3512C20.4966 9.68531 20.6007 13.4383 24.2615 17.2617C25.9221 19.1571 30.0268 23.6467 29.95 28.7319C33.3149 26.4357 34.8878 21.3667 33.5287 16.1894Z" fill="#415167"/>
</svg>
